<svg xmlns="http://www.w3.org/2000/svg" viewBox="0 0 24 24" width="24" height="24" fill="none" stroke="currentColor" stroke-width="2" stroke-linecap="round" stroke-linejoin="round">
  <path d="M21 10V8a2 2 0 0 0-1-1.73l-7-4a2 2 0 0 0-2 0l-7 4A2 2 0 0 0 3 8v2" fill="#C3B1A5" stroke="none" />
  <path d="M3 14v2a2 2 0 0 0 1 1.73l7 4a2 2 0 0 0 2 0l7-4A2 2 0 0 0 21 16v-2" fill="#C3B1A5" stroke="none" />
  <line x1="3" y1="10" x2="3" y2="14" stroke="#5A6B7C" />
  <line x1="21" y1="10" x2="21" y2="14" stroke="#5A6B7C" />
  <line x1="12" y1="2.3" x2="12" y2="21.7" stroke="#5A6B7C" />
  <line x1="3.27" y1="10" x2="12" y2="14.5" stroke="#5A6B7C" />
  <line x1="20.73" y1="10" x2="12" y2="14.5" stroke="#5A6B7C" />
  <title>Packaging Icon</title>
</svg>